# xmcd CD database file generated by OrangeCD 5.2
#
# Track frame offsets:
#	150
#	1245
#	15354
#	30963
#	45012
#	56088
#	70434
#	78186
#	95664
#	111675
#	125349
#	144780
#	157812
#	175446
#	191940
#
# Disc length: 2823 seconds
#
# Revision: 7
# Processed by: cddbd v1.5.1PL0 Copyright (c) Steve Scherf et al.
# Submitted via: OrangeCD 5.2
#
DISCID=b80b050f
DTITLE=Alison Krauss and Union Station - So Long So Wrong
DYEAR=1997
DGENRE=Bluegrass
TTITLE0=So Long So Wrong - Intro
TTITLE1=So Long So Wrong
TTITLE2=No Place To Hide
TTITLE3=Deeper Than Crying
TTITLE4=I Can Let Go Now
TTITLE5=The Road Is A Lover
TTITLE6=Little Liza Jane
TTITLE7=It Doesn't Matter
TTITLE8=Find My Way Back To My Heart
TTITLE9=I'll Remember You, Love, In My Prayers
TTITLE10=Looking In The Eyes Of Love
TTITLE11=Pain Of A Troubled Life
TTITLE12=Happiness
TTITLE13=Blue Trail Of Sorrow
TTITLE14=There Is A Reason
EXTD=
EXTT0=
EXTT1=
EXTT2=
EXTT3=
EXTT4=\n\n\n\n
EXTT5=
EXTT6=
EXTT7=
EXTT8=
EXTT9=
EXTT10=
EXTT11=
EXTT12=
EXTT13=
EXTT14=
PLAYORDER=
